<?xml version="1.0" encoding="utf-8"?>
<!-- Generator: Adobe Illustrator 16.0.0, SVG Export Plug-In . SVG Version: 6.00 Build 0)  -->
<!DOCTYPE svg PUBLIC "-//W3C//DTD SVG 1.1//EN" "http://www.w3.org/Graphics/SVG/1.1/DTD/svg11.dtd">
<svg version="1.1" id="Layer_1" xmlns="http://www.w3.org/2000/svg" xmlns:xlink="http://www.w3.org/1999/xlink" x="0px" y="0px"
	 width="576px" height="432px" viewBox="0 0 576 432" enable-background="new 0 0 576 432" xml:space="preserve">
<g transform="translate(0.000000,432.000000) scale(0.100000,-0.100000)">
	<path fill="#672058" d="M2011.811,4276.562c-623.047-60.737-1199.082-288.008-1522.368-603.457
		c-225.317-219.438-333.081-460.43-348.75-785.674c-11.753-240.991,19.59-409.487,115.596-601.504l60.732-123.438l-60.732-123.428
		c-162.622-327.207-162.622-736.699-3.916-1061.943c256.67-525.088,960.054-871.885,1910.302-940.449
		c195.928-13.721,632.856,15.664,901.279,60.723c995.322,168.516,1873.076,646.562,2282.578,1242.197
		c358.544,523.135,368.339,1075.654,29.375,1588.989c-405.566,615.21-1330.352,1132.466-2321.748,1299.009
		C2676.02,4290.283,2333.144,4307.915,2011.811,4276.562z M2350.771,3004.99c35.264-19.595,37.227-47.021,37.227-574.067
		c0-591.704-1.963-601.509-97.964-601.509s-97.964,9.805-97.964,589.746c0,468.271,3.921,548.603,31.348,574.072
		C2258.681,3030.454,2297.871,3032.417,2350.771,3004.99z M1949.116,2550.429c242.954-164.58,219.438-527.041-43.11-675.957
		c-82.28-47.012-223.354-58.779-309.56-25.469l-50.947,19.6v-172.412c0-199.863-25.464-266.475-103.833-274.307
		c-107.759-13.711-111.685,0-111.685,470.234c0,385.967,3.926,436.914,37.231,503.525c52.9,101.895,162.622,193.97,250.791,207.686
		c41.138,7.837,84.243,15.674,94.038,17.632C1753.193,2630.757,1890.342,2589.614,1949.116,2550.429z M3775.176,2573.945
		c84.238-37.222,84.238-37.222,156.748,0c139.121,74.448,325.244,29.385,419.287-101.885
		c41.143-58.779,45.068-90.122,50.938-321.318c5.879-217.49,1.973-262.549-25.469-289.99c-41.143-39.18-96.006-41.143-135.195,0
		c-23.496,23.516-31.348,74.473-31.348,225.312c0,248.843-27.441,311.538-141.074,311.538c-90.117,0-113.633-60.737-113.633-295.845
		c0-180.254-3.916-211.621-39.189-242.949c-50.928-45.068-133.223-25.479-156.738,41.133
		c-11.748,27.441-19.59,137.148-19.59,242.959c0,215.527-17.646,254.702-117.559,254.702c-94.043,0-117.559-56.816-117.559-291.938
		c0-162.617-5.869-211.602-33.311-240.986c-41.143-47.012-94.043-45.068-143.027,3.926c-33.311,33.311-39.18,64.648-39.18,231.191
		c0,223.364,21.543,313.486,92.09,397.744C3481.279,2615.093,3624.306,2642.514,3775.176,2573.945z M2646.631,2560.224
		c29.39-25.469,35.264-62.686,35.264-223.359c0-174.375,3.926-197.891,47.021-244.902c35.264-41.152,62.695-54.873,119.521-54.873
		s84.238,13.721,119.502,54.873c43.115,47.012,47.041,72.49,47.041,233.145c0,133.242,7.832,193.979,31.328,225.322
		c35.293,50.942,97.979,54.868,148.916,9.795c50.938-47.021,50.938-391.855-1.963-505.488
		c-68.574-148.906-186.133-225.322-344.824-225.322c-158.711,0-276.27,76.416-344.844,225.322
		c-50.947,107.754-52.896,448.667-3.911,503.54C2538.867,2601.372,2599.599,2603.33,2646.631,2560.224z"/>
	<path fill="#672058" d="M1651.299,2397.602c-111.67-45.054-143.018-219.434-56.816-303.687
		c64.658-66.621,182.217-66.621,258.633-1.953c111.675,96.001,48.984,289.976-101.885,315.439
		C1719.883,2411.328,1672.861,2407.402,1651.299,2397.602z"/>
</g>
</svg>
